<svg width="177" height="177" viewBox="0 0 177 177" fill="none" xmlns="http://www.w3.org/2000/svg">
<g clip-path="url(#clip0_195_1861)" filter="url(#filter0_d_195_1861)">
<path fill-rule="evenodd" clip-rule="evenodd" d="M143.775 23.1059C145.409 22.1222 147.359 21.8092 149.218 22.2327C151.077 22.6563 152.7 23.7833 153.746 25.3774L161.048 36.5136C162.001 37.9691 162.41 39.7149 162.201 41.4425C161.991 43.17 161.178 44.7679 159.904 45.9536L159.882 45.9831L159.779 46.079L159.359 46.4699L157.699 48.0555C148.517 56.9615 139.614 66.1503 131.002 75.6085C114.799 93.4265 95.5575 116.746 82.607 139.373C78.9933 145.686 70.1654 147.043 64.9292 141.593L17.1023 91.8999C16.4169 91.1875 15.8817 90.3445 15.5286 89.4212C15.1754 88.4978 15.0116 87.5129 15.0466 86.5249C15.0817 85.537 15.3151 84.5662 15.7328 83.6702C16.1506 82.7742 16.7442 81.9714 17.4784 81.3094L31.9334 68.2704C33.2037 67.1251 34.8325 66.457 36.5411 66.3803C38.2498 66.3036 39.9319 66.8231 41.2997 67.85L65.7035 86.1474C103.818 48.557 125.441 34.1315 143.775 23.1059Z" fill="#328A58"/>
</g>
<defs>
<filter id="filter0_d_195_1861" x="-4" y="0" width="185" height="185" filterUnits="userSpaceOnUse" color-interpolation-filters="sRGB">
<feFlood flood-opacity="0" result="BackgroundImageFix"/>
<feColorMatrix in="SourceAlpha" type="matrix" values="0 0 0 0 0 0 0 0 0 0 0 0 0 0 0 0 0 0 127 0" result="hardAlpha"/>
<feOffset dy="4"/>
<feGaussianBlur stdDeviation="2"/>
<feComposite in2="hardAlpha" operator="out"/>
<feColorMatrix type="matrix" values="0 0 0 0 0 0 0 0 0 0 0 0 0 0 0 0 0 0 0.25 0"/>
<feBlend mode="normal" in2="BackgroundImageFix" result="effect1_dropShadow_195_1861"/>
<feBlend mode="normal" in="SourceGraphic" in2="effect1_dropShadow_195_1861" result="shape"/>
</filter>
<clipPath id="clip0_195_1861">
<rect width="177" height="177" fill="white"/>
</clipPath>
</defs>
</svg>
